<svg width="589" height="610" viewBox="0 0 589 610" fill="none" xmlns="http://www.w3.org/2000/svg">
<g clip-path="url(#clip0_1_6)">
<path d="M252 435C264.703 435 275 424.703 275 412C275 399.297 264.703 389 252 389C239.297 389 229 399.297 229 412C229 424.703 239.297 435 252 435Z" fill="white"/>
<path opacity="0.2" d="M627.52 462.533V306.403H627.999V304.679H627.52V148.549C627.511 110.26 613.102 73.4748 587.34 45.9729V43.14H627.52V41.4048H588.504L625.968 2.45188L624.826 1.27149L587.374 40.2244V2.10957H585.708V41.4048H582.877C556.664 15.4935 521.805 1.02284 485.544 1H180.965C144.718 1.03497 109.878 15.5047 83.6772 41.4048H80.835V2.10957H79.1798V40.189L41.7281 1.23608L40.5866 2.41647L78.0383 41.3694H41.3743V43.0928H79.1798V45.9729C53.4145 73.4727 39.0051 110.259 39 148.549V462.533C39.0051 500.823 53.4145 537.609 79.1798 565.109V567.989H41.3743V569.713H78.004L40.5524 608.665L41.6939 609.846L79.1456 570.893V608.973H80.8007V569.677H83.6429C109.852 595.586 144.707 610.056 180.965 610.082H485.544C521.794 610.05 556.639 595.58 582.843 569.677H585.674V608.973H587.34V570.893L624.792 609.846L625.933 608.665L588.47 569.713H627.999V567.989H587.34V565.109C613.096 537.603 627.504 500.821 627.52 462.533ZM625.853 462.533C625.851 499.754 612.07 535.562 587.34 562.606V414.668H625.26V412.956H587.34V306.403H625.853V462.533ZM437.75 412.956L436.609 411.776C438.503 409.785 440.341 407.739 442.122 405.638V412.956H437.75ZM442.122 414.68V417.502L439.406 414.68H442.122ZM225.345 412.956V406.759C226.829 408.471 228.359 410.136 229.911 411.776L228.77 412.956H225.345ZM227.115 414.68L225.345 416.498V414.668L227.115 414.68ZM228.77 198.125L229.911 199.306C228.359 200.946 226.829 202.623 225.345 204.323V198.125H228.77ZM225.345 196.402V194.585L227.115 196.414L225.345 196.402ZM442.122 198.125V205.444C440.341 203.343 438.503 201.296 436.609 199.306L437.75 198.125H442.122ZM439.406 196.402L442.122 193.581V196.402H439.406ZM442.122 304.667H438.218C438.045 276.348 427.231 249.207 408.061 228.98L435.456 200.533C437.739 202.949 439.969 205.455 442.145 208.052L442.122 304.667ZM443.777 210.094C465.068 236.704 476.768 270.13 476.88 304.667H443.777V210.094ZM406.885 230.161C425.754 250.053 436.398 276.757 436.563 304.62H335.257L406.885 230.161ZM334.093 303.345V198.125C360.946 198.319 386.656 209.388 405.709 228.957L334.093 303.345ZM332.427 303.345L260.799 228.875C279.874 209.341 305.583 198.304 332.427 198.125V303.345ZM331.285 304.526H229.957C230.129 276.663 240.772 249.963 259.635 230.066L331.285 304.526ZM331.285 306.249L259.658 380.708C240.795 360.813 230.152 334.111 229.98 306.249H331.285ZM332.427 307.43V412.956C305.569 412.762 279.854 401.688 260.799 382.113L332.427 307.43ZM334.093 307.43L405.709 381.889C386.695 401.548 360.98 412.704 334.093 412.956V307.43ZM335.235 306.249H436.529C436.363 334.113 425.719 360.817 406.851 380.708L335.235 306.249ZM434.257 199.306L406.862 227.765C391.825 212.339 372.61 202.002 351.763 198.125H433.093L434.257 199.306ZM334.093 196.402V156.186C370.269 156.369 405.028 170.747 431.347 196.414L334.093 196.402ZM332.427 196.402H235.173C261.487 170.728 296.249 156.349 332.427 156.174V196.402ZM314.745 198.125C293.892 202.003 274.669 212.339 259.624 227.765L232.228 199.306L233.37 198.125H314.745ZM231.087 200.487L258.482 228.934C239.303 249.154 228.487 276.298 228.324 304.62H225.368V206.931C227.206 204.747 229.112 202.611 231.087 200.545V200.487ZM223.691 304.62H189.594C189.722 269.554 201.794 235.656 223.691 208.879V304.62ZM223.691 306.344V402.086C201.794 375.309 189.722 341.41 189.594 306.344H223.691ZM225.345 306.344H228.301C228.462 334.663 239.279 361.804 258.459 382.019L231.064 410.478C229.089 408.412 227.183 406.276 225.356 404.092L225.345 306.344ZM232.263 411.776L259.658 383.317C274.695 398.737 293.904 409.073 314.745 412.956H233.427L232.263 411.776ZM332.427 414.68V454.908C296.249 454.733 261.487 440.354 235.173 414.68H332.427ZM334.093 414.68H431.347C405.028 440.347 370.269 454.724 334.093 454.908V414.68ZM351.763 412.956C372.618 409.084 391.842 398.748 406.885 383.317L434.28 411.776L433.139 412.956H351.763ZM435.433 410.596L408.038 382.136C427.21 361.917 438.025 334.779 438.196 306.461H442.1V403.077C439.969 405.626 437.747 408.132 435.433 410.596ZM443.777 306.461H476.88C476.768 340.998 465.068 374.425 443.777 401.034V306.461ZM478.58 304.739C478.453 269.091 466.123 234.641 443.777 207.497V198.125H531.557C548.08 231.045 556.742 267.577 556.817 304.667L478.58 304.739ZM443.777 196.472V191.916L491.924 141.88C507.344 158.03 520.399 176.421 530.677 196.472H443.777ZM443.777 189.485V103.482C460.948 113.656 476.742 126.134 490.749 140.593L443.777 189.485ZM442.122 191.208L437.066 196.472H433.767C407.019 169.708 371.312 154.654 334.093 154.451V73.1455C371.938 73.2314 409.13 83.3423 442.122 102.514V191.208ZM332.427 154.451C295.217 154.633 259.51 169.661 232.754 196.402H229.455L225.345 192.129V101.947C258.108 83.1317 294.951 73.2181 332.427 73.1337V154.451ZM223.691 190.417L175.748 140.593C190.022 125.87 206.147 113.201 223.691 102.927V190.417ZM223.691 192.861V196.402H135.796C146.071 176.348 159.128 157.955 174.55 141.809L223.691 192.861ZM223.691 198.137V206.282C200.753 233.591 188.062 268.508 187.927 304.679H109.703C109.777 267.586 118.438 231.049 134.964 198.125L223.691 198.137ZM187.927 306.403C188.062 342.573 200.753 377.492 223.691 404.8V412.956H134.964C118.44 380.037 109.779 343.504 109.703 306.415L187.927 306.403ZM223.691 414.668V418.21L174.607 469.238C159.184 453.091 146.129 434.699 135.854 414.644L223.691 414.668ZM223.691 420.664V508.155C206.147 497.881 190.022 485.212 175.748 470.489L223.691 420.664ZM225.345 418.941L229.455 414.668H232.754C259.509 441.414 295.215 456.446 332.427 456.631V537.961C294.951 537.866 258.109 527.948 225.345 509.135V418.941ZM334.093 456.631C371.303 456.447 407.009 441.419 433.767 414.68H437.066L442.122 419.944V508.569C409.129 527.738 371.938 537.852 334.093 537.949V456.631ZM443.777 421.668L490.749 470.501C476.737 484.953 460.944 497.431 443.777 507.612V421.668ZM443.777 419.236V414.68H530.677C520.399 434.732 507.344 453.124 491.924 469.273L443.777 419.236ZM443.777 412.956V403.655C466.123 376.511 478.453 342.062 478.58 306.415H556.817C556.742 343.504 548.08 380.037 531.557 412.956H443.777ZM558.472 306.415H585.674V412.956H533.428C549.817 379.991 558.401 343.471 558.472 306.403V306.415ZM558.472 304.691C558.403 267.62 549.819 231.096 533.428 198.125H585.674V304.667L558.472 304.691ZM532.549 196.426C522.132 175.91 508.837 157.1 493.1 140.605L584.623 45.5007L584.703 45.5716C585.046 45.9375 585.388 46.327 585.73 46.7519V196.414L532.549 196.426ZM583.368 44.3085L491.924 139.377C477.588 124.58 461.394 111.839 443.777 101.499V43.1282H582.18L583.368 44.3085ZM442.122 100.543C409.078 81.5307 371.907 71.5069 334.093 71.4103V43.0809H442.122V100.543ZM334.093 41.4048V2.72337H442.122V41.4048H334.093ZM332.427 41.4048H225.345V2.72337H332.427V41.4048ZM332.427 43.1282V71.4576C294.981 71.5482 258.158 81.3754 225.345 100.035V43.1282H332.427ZM223.691 100.968C205.71 111.398 189.195 124.325 174.607 139.389L83.1636 44.3204L84.305 43.14H223.691V100.968ZM81.8737 45.5716L81.9422 45.5007L173.42 140.593C157.676 157.085 144.378 175.896 133.959 196.414H80.835V46.7048C81.2345 46.327 81.5199 45.9375 81.8737 45.5716ZM133.092 198.125C116.704 231.088 108.121 267.604 108.048 304.667H80.835V198.125H133.092ZM108.048 306.391C108.117 343.462 116.701 379.987 133.092 412.956H80.835V306.403L108.048 306.391ZM133.959 414.656C144.378 435.174 157.676 453.985 173.42 470.477L81.9422 565.581L81.8737 565.51C81.5199 565.144 81.1888 564.755 80.835 564.33V414.668L133.959 414.656ZM83.1521 566.774L174.595 471.704C189.187 486.769 205.7 499.699 223.679 510.138V567.977H84.3392L83.1521 566.774ZM225.345 511.095C258.158 529.754 294.981 539.581 332.427 539.671V568.001H225.345V511.095ZM332.427 569.677V608.358H225.345V569.677H332.427ZM334.093 569.677H442.122V608.358H334.093V569.677ZM334.093 567.954V539.625C371.907 539.528 409.078 529.504 442.122 510.492V567.906L334.093 567.954ZM443.777 509.583C461.394 499.242 477.588 486.503 491.924 471.704L583.368 566.774L582.227 567.954H443.777V509.583ZM584.623 565.51L584.544 565.581L493.077 470.489C508.815 453.993 522.109 435.183 532.527 414.668H585.651V564.378L584.623 565.51ZM625.853 148.549V304.679H587.34V198.125H625.26V196.402H587.34V48.5107C612.062 75.5467 625.842 111.34 625.853 148.549ZM580.445 41.3694H443.777V2.72337H485.544C520.768 2.75027 554.677 16.571 580.445 41.4048V41.3694ZM180.93 2.68796H223.691V41.3694H86.0743C111.845 16.5501 145.748 2.74246 180.965 2.72337L180.93 2.68796ZM40.6551 462.533V148.549C40.6622 111.327 54.4469 75.519 79.1798 48.4753V196.378H41.2829V198.125H79.1798V304.667H41.146V306.391H79.1798V412.956H41.2829V414.68H79.1798V562.583C54.4523 535.545 40.6681 499.747 40.6551 462.533ZM86.0743 569.713H223.691V608.394H180.965C145.739 608.355 111.835 594.523 86.0743 569.677V569.713ZM485.59 608.394H443.777V569.677H580.445C554.675 594.509 520.768 608.33 485.544 608.358L485.59 608.394Z" fill="url(#paint0_radial_1_6)"/>
<mask id="mask0_1_6" style="mask-type:alpha" maskUnits="userSpaceOnUse" x="103" y="8" width="525" height="610">
<path d="M627.942 8H103V617.943H627.942V8Z" fill="url(#paint1_linear_1_6)"/>
</mask>
<g mask="url(#mask0_1_6)">
<path d="M184.856 543.237C184.856 538.533 184.856 536.182 185.755 534.392C186.513 532.883 187.702 531.653 189.161 530.87C190.892 529.94 193.166 529.94 197.714 529.94H241.879C246.428 529.94 248.701 529.94 250.433 530.87C251.891 531.653 253.08 532.883 253.838 534.392C254.737 536.182 254.737 538.533 254.737 543.237V588.908C254.737 593.611 254.737 595.963 253.838 597.753C253.08 599.261 251.891 600.491 250.433 601.274C248.701 602.204 246.428 602.204 241.879 602.204H197.714C193.166 602.204 190.892 602.204 189.161 601.274C187.702 600.491 186.513 599.261 185.755 597.753C184.856 595.963 184.856 593.611 184.856 588.908V543.237Z" fill="white" fill-opacity="0.1"/>
<path d="M241.879 529.51H197.714H197.694C195.437 529.51 193.717 529.51 192.347 529.628C190.967 529.746 189.904 529.986 188.969 530.488C187.435 531.313 186.183 532.606 185.386 534.193C184.901 535.16 184.668 536.26 184.554 537.686C184.44 539.104 184.44 540.882 184.44 543.216V543.237V588.908V588.928C184.44 591.263 184.44 593.04 184.554 594.459C184.668 595.885 184.901 596.984 185.386 597.951C186.183 599.538 187.435 600.832 188.969 601.656C189.904 602.158 190.967 602.398 192.347 602.517C193.717 602.634 195.437 602.634 197.694 602.634H197.714H241.879H241.899C244.157 602.634 245.876 602.634 247.246 602.517C248.627 602.398 249.689 602.158 250.624 601.656C252.159 600.832 253.41 599.538 254.207 597.951C254.693 596.984 254.925 595.885 255.04 594.459C255.154 593.04 255.154 591.263 255.154 588.928V588.908V543.237V543.216C255.154 540.882 255.154 539.104 255.04 537.686C254.925 536.26 254.693 535.16 254.207 534.193C253.41 532.606 252.159 531.313 250.624 530.488C249.689 529.986 248.627 529.746 247.246 529.628C245.876 529.51 244.157 529.51 241.899 529.51H241.879Z" stroke="white" stroke-opacity="0.2" stroke-width="0.937853"/>
<mask id="mask1_1_6" style="mask-type:luminance" maskUnits="userSpaceOnUse" x="195" y="541" width="49" height="51">
<path d="M243.922 541.124H195.67V591.021H243.922V541.124Z" fill="white"/>
</mask>
<g mask="url(#mask1_1_6)">
<path d="M198.686 541.124H240.906L237.066 585.954L219.75 591.021L202.53 585.953L198.686 541.124ZM233.045 550.299L206.547 550.293L206.975 555.744L227.331 555.748L226.819 561.395H213.468L213.951 566.744H226.38L225.644 574.068L219.794 575.74L213.851 574.056L213.473 569.669H208.226L208.809 577.684L219.796 581.225L230.598 578.044L233.045 550.301V550.299Z" fill="white"/>
</g>
<path d="M429.966 67.6508H385.874C378.982 67.6508 373.395 73.4282 373.395 80.5551V126.15C373.395 133.277 378.982 139.055 385.874 139.055H429.966C436.858 139.055 442.445 133.277 442.445 126.15V80.5551C442.445 73.4282 436.858 67.6508 429.966 67.6508Z" fill="white" fill-opacity="0.1"/>
<path d="M429.966 67.2206H385.874C378.753 67.2206 372.979 73.1907 372.979 80.5551V126.15C372.979 133.515 378.753 139.485 385.874 139.485H429.966C437.088 139.485 442.861 133.515 442.861 126.15V80.5551C442.861 73.1907 437.088 67.2206 429.966 67.2206Z" stroke="white" stroke-opacity="0.2" stroke-width="0.937853"/>
<path d="M419.778 123.435C421.169 125.783 422.979 127.51 426.179 127.51C428.868 127.51 430.585 126.12 430.585 124.2C430.585 121.899 428.821 121.084 425.862 119.746L424.239 119.026C419.557 116.963 416.446 114.379 416.446 108.916C416.446 103.884 420.154 100.053 425.949 100.053C430.074 100.053 433.04 101.538 435.177 105.426L430.125 108.78C429.012 106.717 427.812 105.905 425.949 105.905C424.048 105.905 422.844 107.151 422.844 108.78C422.844 110.793 424.049 111.608 426.834 112.855L428.455 113.573C433.968 116.018 437.081 118.51 437.081 124.114C437.081 130.155 432.492 133.465 426.329 133.465C420.303 133.465 416.41 130.494 414.506 126.602L419.778 123.435ZM396.858 124.016C397.877 125.887 398.804 127.467 401.033 127.467C403.165 127.467 404.509 126.605 404.509 123.251V100.437H410.998V123.342C410.998 130.29 407.059 133.452 401.309 133.452C396.114 133.452 393.105 130.671 391.575 127.323L396.858 124.016Z" fill="white"/>
<path d="M284.159 30.4301H240.899C233.548 30.4301 227.588 36.5927 227.588 44.1946V88.9296C227.588 96.5315 233.548 102.694 240.899 102.694H284.159C291.51 102.694 297.47 96.5315 297.47 88.9296V44.1946C297.47 36.5927 291.51 30.4301 284.159 30.4301Z" fill="white" fill-opacity="0.1"/>
<path d="M284.159 30H240.899C233.318 30 227.172 36.3552 227.172 44.1947V88.9296C227.172 96.7691 233.318 103.124 240.899 103.124H284.159C291.74 103.124 297.886 96.7691 297.886 88.9296V44.1947C297.886 36.3552 291.74 30 284.159 30Z" stroke="white" stroke-opacity="0.2" stroke-width="0.937853"/>
<path d="M262.372 76.5088C277.072 76.7564 289.06 72.5052 289.146 67.0135C289.233 61.5219 277.386 56.8693 262.685 56.6217C247.984 56.3741 235.998 60.6253 235.911 66.1169C235.825 71.6087 247.671 76.2612 262.372 76.5088Z" stroke="white" stroke-width="2.73905"/>
<path d="M253.648 71.3855C260.802 83.9654 270.578 92.0037 275.482 89.3397C280.386 86.6757 278.562 74.3182 271.408 61.7384C264.254 49.1587 254.478 41.1203 249.574 43.7843C244.67 46.4483 246.494 58.8058 253.648 71.3855Z" stroke="white" stroke-width="2.73905"/>
<path d="M253.806 61.4419C246.26 73.7741 244.048 86.0636 248.865 88.8913C253.683 91.719 263.706 84.0141 271.253 71.6819C278.799 59.3496 281.011 47.0601 276.193 44.2325C271.376 41.4047 261.352 49.1097 253.806 61.4419Z" stroke="white" stroke-width="2.73905"/>
<path fill-rule="evenodd" clip-rule="evenodd" d="M272.589 66.7993C271.901 65.3425 271.134 63.8637 270.289 62.3792C269.446 60.8959 268.567 59.4795 267.665 58.1399C266.032 57.9925 264.341 57.9009 262.605 57.8717C260.87 57.8425 259.175 57.8771 257.539 57.9694C256.595 59.2779 255.672 60.6639 254.783 62.118C253.892 63.5733 253.079 65.0255 252.344 66.4584C253.033 67.9149 253.8 69.3935 254.644 70.8778C255.489 72.3634 256.37 73.782 257.273 75.1234C258.905 75.2706 260.596 75.3621 262.329 75.3913C264.063 75.4205 265.755 75.386 267.391 75.2938C268.336 73.9835 269.261 72.5953 270.152 71.139C271.042 69.6839 271.856 68.232 272.589 66.7993Z" fill="white" fill-opacity="0.2"/>
<path d="M262.473 71.4161C265.214 71.4622 267.468 69.3267 267.511 66.6461C267.553 63.9657 265.366 61.7554 262.627 61.7093C259.887 61.6631 257.632 63.7987 257.589 66.4791C257.548 69.1595 259.734 71.3699 262.473 71.4161Z" fill="white"/>
<path d="M537.556 312.968L492.635 312.436C485.743 312.354 480.093 318.065 480.014 325.192L479.499 371.644C479.42 378.77 484.943 384.614 491.834 384.695L536.755 385.227C543.647 385.309 549.297 379.598 549.376 372.472L549.891 326.019C549.97 318.893 544.447 313.05 537.556 312.968Z" fill="white" fill-opacity="0.1"/>
<path d="M537.56 312.538L492.639 312.006C485.518 311.922 479.679 317.823 479.598 325.187L479.083 371.639C479.001 379.003 484.708 385.041 491.829 385.126L536.75 385.658C543.871 385.742 549.71 379.841 549.792 372.477L550.306 326.024C550.388 318.661 544.681 312.623 537.56 312.538Z" stroke="white" stroke-opacity="0.2" stroke-width="0.937853"/>
<path d="M355.4 159.157H310.476C303.584 159.157 297.997 164.935 297.997 172.061V218.517C297.997 225.644 303.584 231.421 310.476 231.421H355.4C362.292 231.421 367.878 225.644 367.878 218.517V172.061C367.878 164.935 362.292 159.157 355.4 159.157Z" fill="white" fill-opacity="0.1"/>
<path d="M355.4 158.727H310.476C303.354 158.727 297.581 164.697 297.581 172.061V218.517C297.581 225.881 303.354 231.851 310.476 231.851H355.4C362.521 231.851 368.294 225.881 368.294 218.517V172.061C368.294 164.697 362.521 158.727 355.4 158.727Z" stroke="white" stroke-opacity="0.2" stroke-width="0.937853"/>
<path d="M315.08 203.715L320.326 168.816C320.364 168.558 320.48 168.318 320.658 168.131C320.835 167.945 321.065 167.821 321.314 167.777C321.563 167.733 321.82 167.772 322.047 167.888C322.274 168.003 322.46 168.191 322.578 168.422L328.22 179.367L315.08 203.715ZM352.339 212.183L347.344 180.067C347.306 179.842 347.21 179.631 347.066 179.459C346.922 179.286 346.734 179.158 346.524 179.088C346.314 179.018 346.089 179.009 345.875 179.062C345.66 179.116 345.463 179.229 345.307 179.39L313.803 212.183L331.235 222.341C331.772 222.654 332.378 222.818 332.995 222.818C333.612 222.818 334.218 222.654 334.755 222.341L352.339 212.183ZM338.174 184.157L334.136 176.169C334.034 175.968 333.882 175.8 333.694 175.682C333.506 175.565 333.291 175.503 333.072 175.503C332.852 175.503 332.637 175.565 332.449 175.682C332.262 175.8 332.108 175.968 332.006 176.169L314.281 209.017L338.174 184.157Z" fill="white"/>
<path d="M488.641 205.751H443.718C436.826 205.751 431.239 211.528 431.239 218.655V265.111C431.239 272.238 436.826 278.015 443.718 278.015H488.641C495.533 278.015 501.12 272.238 501.12 265.111V218.655C501.12 211.528 495.533 205.751 488.641 205.751Z" fill="white" fill-opacity="0.1"/>
<path d="M488.641 205.321H443.718C436.596 205.321 430.823 211.291 430.823 218.655V265.111C430.823 272.475 436.596 278.445 443.718 278.445H488.641C495.763 278.445 501.536 272.475 501.536 265.111V218.655C501.536 211.291 495.763 205.321 488.641 205.321Z" stroke="white" stroke-opacity="0.2" stroke-width="0.937853"/>
<mask id="mask2_1_6" style="mask-type:luminance" maskUnits="userSpaceOnUse" x="439" y="214" width="54" height="56">
<path d="M492.851 214.407L439.608 214.301L439.506 269.359L492.749 269.465L492.851 214.407Z" fill="white"/>
</mask>
<g mask="url(#mask2_1_6)">
<path d="M439.523 260.376C439.616 261.592 440.029 262.816 441.108 264.458C442.392 266.408 444.599 267.482 446.215 265.769C447.304 264.613 459.111 243.367 464.796 235.317C464.952 235.087 465.16 234.899 465.401 234.77C465.642 234.64 465.91 234.573 466.181 234.573C466.453 234.574 466.721 234.642 466.962 234.772C467.202 234.903 467.409 235.092 467.564 235.323C473.22 243.395 484.947 264.687 486.032 265.847C487.642 267.567 489.853 266.502 491.143 264.557C492.411 262.644 492.764 261.303 492.767 259.867C492.769 258.89 474.51 223.589 472.669 220.648C470.9 217.823 470.36 217.207 467.358 217.1L465.069 217.095C462.067 217.191 461.525 217.802 459.742 220.622C457.932 223.493 440.261 257.335 439.525 259.656L439.523 260.376Z" fill="white"/>
</g>
<path d="M397.739 285.619H342.177C338.453 285.619 335.433 288.741 335.433 292.592V350.049C335.433 353.901 338.453 357.023 342.177 357.023H397.739C401.464 357.023 404.483 353.901 404.483 350.049V292.592C404.483 288.741 401.464 285.619 397.739 285.619Z" fill="white" fill-opacity="0.1"/>
<path d="M397.739 285.189H342.176C338.223 285.189 335.017 288.504 335.017 292.592V350.049C335.017 354.139 338.223 357.453 342.176 357.453H397.739C401.694 357.453 404.899 354.139 404.899 350.049V292.592C404.899 288.504 401.694 285.189 397.739 285.189Z" stroke="white" stroke-opacity="0.2" stroke-width="0.937853"/>
<path fill-rule="evenodd" clip-rule="evenodd" d="M377.925 342.48V349.453C379.016 350.039 380.351 350.471 381.836 350.764C383.319 351.057 384.937 351.196 386.556 351.196C388.173 351.196 389.658 351.043 391.141 350.723C392.624 350.402 393.838 349.872 394.917 349.188C396.009 348.449 396.94 347.515 397.48 346.259C398.019 345.004 398.437 343.61 398.437 341.797C398.437 340.528 398.248 339.426 397.884 338.449C397.519 337.473 396.993 336.637 396.265 335.94C395.578 335.2 394.782 334.544 393.838 333.987C392.893 333.429 391.815 332.844 390.601 332.314C389.711 331.937 388.982 331.574 388.174 331.212C387.473 330.85 386.866 330.486 386.421 330.124C385.921 329.747 385.544 329.357 385.275 328.953C385.004 328.534 384.869 328.074 384.869 327.558C384.869 327.084 384.99 326.651 385.234 326.261C385.478 325.871 385.814 325.549 386.245 325.271C386.677 324.992 387.216 324.783 387.864 324.629C388.497 324.476 389.199 324.407 390.021 324.407C390.588 324.407 391.181 324.45 391.775 324.537C392.395 324.625 393.029 324.761 393.663 324.941C394.297 325.123 394.917 325.346 395.551 325.625C396.145 325.904 396.697 326.225 397.169 326.587V320.033C396.145 319.628 395.011 319.321 393.797 319.127C392.584 318.931 391.235 318.833 389.617 318.833C387.999 318.833 386.515 319.015 385.032 319.363C383.548 319.712 382.334 320.27 381.255 321.036C380.163 321.79 379.367 322.71 378.693 323.965C378.059 325.137 377.749 326.476 377.749 328.149C377.749 330.241 378.329 332.054 379.502 333.448C380.662 334.983 382.469 336.098 384.762 337.214C385.692 337.605 386.515 337.995 387.324 338.371C388.134 338.748 388.808 339.139 389.347 339.543C389.927 339.947 390.386 340.394 390.695 340.868C391.032 341.343 391.208 341.9 391.208 342.541C391.208 342.988 391.103 343.406 390.898 343.796C390.693 344.187 390.372 344.522 389.94 344.801C389.508 345.08 388.982 345.302 388.323 345.47C387.688 345.624 386.973 345.707 386.029 345.707C384.546 345.707 383.062 345.442 381.714 344.913C380.23 344.382 378.882 343.587 377.668 342.541L377.925 342.48ZM366.596 325.327H375.227V319.609H351.087V325.327H359.718V350.848H366.596V325.327Z" fill="white"/>
<path d="M419.458 411.221H374.534C367.642 411.221 362.055 416.998 362.055 424.125V470.581C362.055 477.708 367.642 483.485 374.534 483.485H419.458C426.35 483.485 431.937 477.708 431.937 470.581V424.125C431.937 416.998 426.35 411.221 419.458 411.221Z" fill="white" fill-opacity="0.1"/>
<path d="M419.458 410.791H374.534C367.412 410.791 361.639 416.761 361.639 424.125V470.581C361.639 477.945 367.412 483.915 374.534 483.915H419.458C426.579 483.915 432.352 477.945 432.352 470.581V424.125C432.352 416.761 426.579 410.791 419.458 410.791Z" stroke="white" stroke-opacity="0.2" stroke-width="0.937853"/>
<mask id="mask3_1_6" style="mask-type:luminance" maskUnits="userSpaceOnUse" x="372" y="422" width="50" height="51">
<path d="M421.257 422.404H372.869V472.441H421.257V422.404Z" fill="white"/>
</mask>
<g mask="url(#mask3_1_6)">
<path d="M397.063 423.023C383.697 423.023 372.869 434.229 372.869 448.042C372.869 459.102 379.802 468.476 389.407 471.783C390.622 472.019 391.061 471.245 391.061 470.576C391.061 469.982 391.047 468.411 391.038 466.325C384.304 467.832 382.886 462.961 382.886 462.961C381.783 460.077 380.193 459.304 380.193 459.304C378.003 457.757 380.367 457.79 380.367 457.79C382.792 457.96 384.068 460.362 384.068 460.362C386.226 464.19 389.729 463.083 391.117 462.439C391.328 460.826 391.959 459.717 392.645 459.1C387.274 458.473 381.626 456.323 381.626 446.736C381.626 443.998 382.564 441.769 384.113 440.017C383.846 439.39 383.027 436.841 384.327 433.395C384.327 433.395 386.351 432.727 390.98 435.96C392.917 435.405 394.974 435.129 397.029 435.115C399.085 435.129 401.14 435.407 403.077 435.96C407.679 432.727 409.702 433.395 409.702 433.395C411.001 436.841 410.181 439.388 409.945 440.017C411.48 441.769 412.417 444 412.417 446.736C412.417 456.344 406.762 458.463 401.385 459.075C402.226 459.824 403.014 461.364 403.014 463.702C403.014 467.048 402.984 469.744 402.984 470.559C402.984 471.209 403.407 471.991 404.653 471.739C414.331 468.467 421.254 459.084 421.254 448.04C421.254 434.229 410.426 423.021 397.061 423.021L397.063 423.023Z" fill="white"/>
</g>
<path d="M165.403 319H120.479C113.587 319 108 324.777 108 331.904V378.36C108 385.487 113.587 391.264 120.479 391.264H165.403C172.294 391.264 177.881 385.487 177.881 378.36V331.904C177.881 324.777 172.294 319 165.403 319Z" fill="white" fill-opacity="0.1"/>
<path d="M261.393 240.024H216.469C209.577 240.024 203.99 245.801 203.99 252.928V299.384C203.99 306.51 209.577 312.288 216.469 312.288H261.393C268.285 312.288 273.872 306.51 273.872 299.384V252.928C273.872 245.801 268.285 240.024 261.393 240.024Z" fill="white" fill-opacity="0.1"/>
<path d="M261.393 239.594H216.469C209.347 239.594 203.574 245.564 203.574 252.928V299.384C203.574 306.748 209.347 312.718 216.469 312.718H261.393C268.514 312.718 274.288 306.748 274.288 299.384V252.928C274.288 245.564 268.514 239.594 261.393 239.594Z" stroke="white" stroke-opacity="0.2" stroke-width="0.937853"/>
<path d="M455.231 520.477H410.307C403.415 520.477 397.828 526.255 397.828 533.381V579.837C397.828 586.964 403.415 592.741 410.307 592.741H455.231C462.123 592.741 467.71 586.964 467.71 579.837V533.381C467.71 526.255 462.123 520.477 455.231 520.477Z" fill="white" fill-opacity="0.1"/>
<path d="M455.231 520.048H410.307C403.185 520.048 397.412 526.018 397.412 533.382V579.838C397.412 587.202 403.185 593.172 410.307 593.172H455.231C462.352 593.172 468.125 587.202 468.125 579.838V533.382C468.125 526.018 462.352 520.048 455.231 520.048Z" stroke="white" stroke-opacity="0.2" stroke-width="0.937853"/>
<path d="M409.479 528.22C408.976 528.22 408.601 528.644 408.647 529.162L412.888 578.373C412.934 578.891 413.367 579.43 413.852 579.569L431.855 584.738C432.34 584.877 433.133 584.877 433.619 584.738L451.677 579.561C452.162 579.421 452.596 578.884 452.641 578.366L456.89 529.162C456.936 528.644 456.56 528.22 456.057 528.22H409.479ZM447.855 539.506C447.815 539.969 447.746 540.771 447.701 541.29L447.589 542.58C447.544 543.098 447.48 543.84 447.446 544.228C447.412 544.615 447.38 544.932 447.375 544.932C447.369 544.932 446.953 544.932 446.449 544.932H433.683C433.18 544.932 432.764 544.932 432.758 544.932C432.753 544.932 432.337 544.932 431.833 544.932H425.11C424.607 544.932 424.232 545.356 424.276 545.874L424.668 550.407C424.714 550.926 425.162 551.35 425.665 551.35H431.834C432.337 551.35 432.753 551.35 432.758 551.35C432.764 551.35 433.181 551.35 433.683 551.35H444.286C444.789 551.35 445.568 551.35 446.017 551.35C446.465 551.35 446.798 551.728 446.759 552.191C446.718 552.653 446.648 553.456 446.603 553.974L445.342 568.588C445.297 569.106 445.24 569.769 445.215 570.06C445.19 570.35 444.773 570.703 444.288 570.841L433.65 573.892C433.165 574.031 432.762 574.146 432.755 574.147C432.747 574.149 432.344 574.037 431.859 573.897L421.21 570.842C420.725 570.703 420.292 570.164 420.246 569.646L419.561 561.689C419.516 561.171 419.892 560.747 420.395 560.747H421.367C421.871 560.747 422.694 560.747 423.197 560.747H424.646C425.149 560.747 425.598 561.171 425.642 561.689L425.911 564.804C425.956 565.323 426.39 565.857 426.876 565.993L431.858 567.385C432.343 567.52 432.742 567.631 432.745 567.631C432.747 567.631 433.146 567.52 433.632 567.384L438.623 565.989C439.108 565.854 439.542 565.319 439.588 564.801L440.129 558.56C440.173 558.042 439.799 557.618 439.295 557.618H433.683C433.181 557.618 432.764 557.618 432.758 557.618C432.753 557.618 432.337 557.618 431.834 557.618H420.124C419.62 557.618 419.172 557.194 419.128 556.675L417.8 541.29C417.755 540.771 417.686 539.969 417.646 539.506C417.606 539.044 417.985 538.665 418.488 538.665H431.834C432.337 538.665 432.753 538.665 432.758 538.665C432.764 538.665 433.181 538.665 433.683 538.665H447.012C447.516 538.665 447.895 539.044 447.855 539.506Z" fill="white"/>
</g>
<path d="M239.5 252C230.801 252 229 256.492 229 259.094V264H239V265H224.094C220.793 265 217 267.602 217 275C217 282.398 220.793 285 224.094 285H230V279C230 276.801 231.801 275 234 275H246C247.699 275 249 273.699 249 272V259.094C249 255.594 245.699 252 239.5 252ZM235 257C236.102 257 237 257.898 237 259C237 260.102 236.102 261 235 261C233.898 261 233 260.102 233 259C233 257.898 233.898 257 235 257ZM250 265V272C250 274.199 248.199 276 246 276H234C232.301 276 231 277.301 231 279V290.906C231 294.406 234.301 298 240.5 298C249.199 298 251 293.508 251 290.906V286H241V285H255.906C259.207 285 263 282.398 263 275C263 267.602 259.207 265 255.906 265H250ZM245 289C246.102 289 247 289.898 247 291C247 292.102 246.102 293 245 293C243.898 293 243 292.102 243 291C243 289.898 243.898 289 245 289Z" fill="white"/>
<g clip-path="url(#clip1_1_6)">
<path d="M165.686 368.73C166.052 369.862 165.964 371.068 165.477 372.116C165.126 372.881 164.625 373.474 164.011 374.003C163.27 374.632 162.35 375.166 161.239 375.68C159.914 376.288 158.297 376.859 157.557 377.069C155.662 377.598 153.84 377.934 151.994 377.95C149.354 377.976 147.079 377.305 145.462 375.591C144.624 375.701 143.777 375.764 142.924 375.764C142.116 375.764 141.317 375.712 140.523 375.607C138.901 377.31 136.636 377.976 134.006 377.95C132.159 377.934 130.338 377.598 128.438 377.069C127.703 376.859 126.085 376.288 124.76 375.68C123.65 375.166 122.729 374.632 121.994 374.003C121.375 373.474 120.873 372.881 120.523 372.116C120.04 371.068 119.948 369.862 120.318 368.73C119.977 367.865 119.889 366.875 120.157 365.779C120.279 365.282 120.479 364.82 120.732 364.412C120.679 364.197 120.635 363.977 120.605 363.735C120.42 362.299 120.883 360.989 121.755 359.972C122.184 359.464 122.646 359.113 123.129 358.887C122.773 357.263 122.588 355.591 122.588 353.882C122.588 341.796 131.692 332 142.924 332C146.782 332 150.392 333.153 153.47 335.166C154.025 335.533 154.571 335.926 155.092 336.345C155.35 336.555 155.608 336.769 155.857 336.995C156.11 337.215 156.358 337.446 156.597 337.681C157.318 338.389 157.995 339.149 158.614 339.961C158.823 340.229 159.023 340.506 159.218 340.789C159.612 341.35 159.978 341.932 160.314 342.535C160.825 343.436 161.273 344.38 161.663 345.36C161.921 346.015 162.145 346.686 162.345 347.372C162.642 348.4 162.871 349.458 163.027 350.549C163.076 350.91 163.119 351.277 163.154 351.644C163.222 352.378 163.261 353.122 163.261 353.882C163.261 355.57 163.076 357.226 162.73 358.824C163.266 359.05 163.772 359.417 164.245 359.972C165.117 360.989 165.579 362.305 165.394 363.741C165.365 363.977 165.321 364.197 165.268 364.412C165.521 364.82 165.721 365.282 165.842 365.779C166.11 366.875 166.023 367.865 165.686 368.73Z" fill="white"/>
<path d="M159.913 354.031C159.913 344.006 152.341 335.878 143 335.878C133.659 335.878 126.087 344.006 126.087 354.031C126.087 364.057 133.659 372.185 143 372.185C152.341 372.185 159.913 364.057 159.913 354.031ZM124.14 354.031C124.14 342.851 132.584 333.788 143 333.788C153.416 333.788 161.86 342.851 161.86 354.031C161.86 365.211 153.416 374.274 143 374.274C132.584 374.274 124.14 365.211 124.14 354.031Z" fill="black"/>
<path d="M138.602 372.156C139.945 370.064 139.849 368.494 138.008 366.537C136.166 364.582 135.094 361.721 135.094 361.721C135.094 361.721 134.693 360.059 133.781 360.212C132.869 360.365 132.199 362.848 134.11 364.367C136.02 365.886 133.729 366.918 132.994 365.491C132.259 364.065 130.252 360.398 129.211 359.697C128.171 358.995 127.438 359.388 127.683 360.834C127.929 362.279 132.28 365.783 131.857 366.542C131.433 367.299 129.941 365.651 129.941 365.651C129.941 365.651 125.272 361.135 124.256 362.312C123.239 363.489 125.027 364.475 127.575 366.113C130.123 367.752 130.32 368.185 129.959 368.805C129.597 369.424 123.973 364.386 123.445 366.522C122.917 368.658 129.184 369.278 128.797 370.752C128.411 372.228 124.383 367.961 123.559 369.624C122.734 371.286 129.243 373.24 129.295 373.254C131.398 373.834 136.737 375.062 138.602 372.156Z" fill="white"/>
<path d="M128.371 357.335C127.588 357.335 126.887 357.68 126.399 358.307C126.097 358.695 125.781 359.32 125.755 360.257C125.427 360.156 125.11 360.099 124.815 360.099C124.065 360.099 123.387 360.408 122.908 360.968C122.292 361.688 122.019 362.572 122.138 363.457C122.194 363.878 122.325 364.256 122.522 364.606C122.108 364.965 121.804 365.464 121.656 366.065C121.541 366.537 121.423 367.518 122.04 368.529C122.001 368.595 121.964 368.664 121.929 368.734C121.559 369.489 121.535 370.343 121.862 371.138C122.358 372.342 123.591 373.292 125.986 374.31C127.475 374.944 128.838 375.349 128.85 375.353C130.819 375.901 132.6 376.18 134.142 376.18C136.976 376.18 139.005 375.248 140.173 373.411C142.052 370.453 141.783 367.747 139.352 365.139C138.006 363.696 137.111 361.568 136.925 361.101C136.549 359.718 135.556 358.181 133.905 358.181H133.904C133.765 358.181 133.625 358.192 133.486 358.216C132.763 358.338 132.131 358.785 131.679 359.457C131.192 358.807 130.718 358.289 130.29 357.997C129.644 357.558 128.999 357.335 128.371 357.335ZM128.371 359.413C128.618 359.413 128.92 359.526 129.252 359.752C130.285 360.455 132.278 364.131 133.007 365.56C133.252 366.039 133.669 366.242 134.046 366.242C134.792 366.242 135.375 365.446 134.114 364.434C132.218 362.911 132.883 360.422 133.788 360.269C133.828 360.262 133.867 360.259 133.905 360.259C134.728 360.259 135.091 361.781 135.091 361.781C135.091 361.781 136.155 364.649 137.983 366.609C139.811 368.57 139.905 370.143 138.573 372.24C137.664 373.67 135.925 373.856 134.142 373.856C132.294 373.856 130.395 373.507 129.333 373.211C129.281 373.196 122.825 371.369 123.643 369.702C123.78 369.422 124.007 369.31 124.292 369.31C125.444 369.31 127.54 371.15 128.441 371.15C128.642 371.15 128.792 370.983 128.85 370.758C129.251 369.21 123.005 368.734 123.529 366.593C123.622 366.215 123.873 366.061 124.225 366.061C125.748 366.061 129.163 368.935 129.879 368.935C129.934 368.935 129.973 368.918 129.995 368.881C130.353 368.26 130.188 367.754 127.66 366.112C125.131 364.469 123.325 363.553 124.334 362.374C124.451 362.237 124.615 362.177 124.815 362.177C126.35 362.178 129.977 365.72 129.977 365.72C129.977 365.72 130.956 366.812 131.548 366.812C131.684 366.812 131.8 366.755 131.878 366.612C132.298 365.853 127.98 362.341 127.736 360.892C127.571 359.91 127.852 359.413 128.371 359.413Z" fill="black"/>
<path d="M147.315 372.156C145.973 370.064 146.068 368.494 147.909 366.537C149.751 364.582 150.823 361.721 150.823 361.721C150.823 361.721 151.224 360.059 152.136 360.212C153.048 360.365 153.718 362.848 151.807 364.367C149.897 365.886 152.188 366.918 152.923 365.491C153.658 364.065 155.665 360.398 156.706 359.697C157.746 358.995 158.479 359.388 158.234 360.834C157.988 362.279 153.637 365.783 154.06 366.542C154.484 367.299 155.976 365.651 155.976 365.651C155.976 365.651 160.645 361.135 161.661 362.312C162.678 363.489 160.89 364.475 158.342 366.113C155.794 367.752 155.597 368.185 155.958 368.805C156.32 369.424 161.944 364.386 162.472 366.522C163 368.658 156.733 369.278 157.12 370.752C157.506 372.228 161.534 367.961 162.358 369.624C163.183 371.286 156.674 373.24 156.622 373.254C154.519 373.834 149.18 375.062 147.315 372.156Z" fill="white"/>
<path d="M157.546 357.335C158.329 357.335 159.03 357.68 159.518 358.307C159.82 358.695 160.136 359.32 160.162 360.257C160.49 360.156 160.806 360.099 161.102 360.099C161.852 360.099 162.53 360.408 163.009 360.968C163.625 361.688 163.899 362.572 163.779 363.457C163.723 363.878 163.592 364.256 163.395 364.606C163.809 364.965 164.113 365.464 164.261 366.065C164.376 366.537 164.494 367.518 163.877 368.529C163.916 368.595 163.953 368.664 163.988 368.734C164.358 369.489 164.382 370.343 164.055 371.138C163.559 372.342 162.326 373.292 159.931 374.31C158.442 374.944 157.079 375.349 157.067 375.353C155.098 375.901 153.316 376.18 151.775 376.18C148.941 376.18 146.912 375.248 145.744 373.411C143.865 370.453 144.134 367.747 146.565 365.139C147.911 363.696 148.806 361.568 148.992 361.101C149.368 359.718 150.361 358.181 152.012 358.181H152.013C152.152 358.181 152.292 358.192 152.431 358.216C153.154 358.338 153.786 358.785 154.238 359.457C154.725 358.807 155.199 358.289 155.627 357.997C156.273 357.558 156.918 357.335 157.546 357.335ZM157.546 359.413C157.299 359.413 156.997 359.526 156.665 359.752C155.632 360.455 153.639 364.131 152.91 365.56C152.665 366.039 152.248 366.242 151.871 366.242C151.125 366.242 150.542 365.446 151.803 364.434C153.699 362.911 153.034 360.422 152.129 360.269C152.089 360.262 152.05 360.259 152.012 360.259C151.189 360.259 150.826 361.781 150.826 361.781C150.826 361.781 149.762 364.649 147.934 366.609C146.106 368.57 146.012 370.143 147.344 372.24C148.253 373.67 149.992 373.856 151.775 373.856C153.623 373.856 155.522 373.507 156.584 373.211C156.636 373.196 163.093 371.369 162.274 369.702C162.137 369.422 161.91 369.31 161.625 369.31C160.473 369.31 158.377 371.15 157.476 371.15C157.275 371.15 157.125 370.983 157.067 370.758C156.666 369.21 162.912 368.734 162.388 366.593C162.295 366.215 162.044 366.061 161.692 366.061C160.169 366.061 156.754 368.935 156.038 368.935C155.983 368.935 155.944 368.918 155.922 368.881C155.564 368.26 155.729 367.754 158.257 366.112C160.786 364.469 162.592 363.553 161.583 362.374C161.466 362.237 161.302 362.177 161.102 362.177C159.567 362.178 155.94 365.72 155.94 365.72C155.94 365.72 154.961 366.812 154.369 366.812C154.233 366.812 154.117 366.755 154.039 366.612C153.619 365.853 157.937 362.341 158.181 360.892C158.346 359.91 158.065 359.413 157.546 359.413Z" fill="black"/>
<path d="M149.373 354.742C149.373 352.391 146.55 355.974 143.059 355.99C139.568 355.974 136.744 352.391 136.744 354.742C136.744 356.301 137.435 358.836 139.29 360.374C139.659 359.003 141.687 357.904 141.977 358.062C142.389 358.286 142.366 358.909 143.059 359.457C143.751 358.909 143.728 358.287 144.141 358.062C144.431 357.904 146.459 359.003 146.828 360.374C148.683 358.836 149.373 356.301 149.373 354.742L149.373 354.742Z" fill="#0E1116"/>
<path d="M144.141 358.062C143.728 358.286 143.751 358.909 143.059 359.457C142.366 358.909 142.39 358.286 141.977 358.062C141.687 357.904 139.659 359.002 139.29 360.374C140.228 361.152 141.463 361.674 143.058 361.687C143.058 361.687 143.058 361.687 143.059 361.687C143.059 361.687 143.06 361.687 143.06 361.687C144.655 361.674 145.89 361.152 146.828 360.374C146.459 359.002 144.431 357.904 144.141 358.062H144.141Z" fill="#FF323D"/>
<path d="M154.316 351.473C155.18 351.473 155.88 350.717 155.88 349.784C155.88 348.851 155.18 348.095 154.316 348.095C153.452 348.095 152.752 348.851 152.752 349.784C152.752 350.717 153.452 351.473 154.316 351.473Z" fill="black"/>
<path d="M131.776 351.473C132.64 351.473 133.34 350.717 133.34 349.784C133.34 348.851 132.64 348.095 131.776 348.095C130.912 348.095 130.212 348.851 130.212 349.784C130.212 350.717 130.912 351.473 131.776 351.473Z" fill="black"/>
<path d="M148.802 349.048C149.421 349.284 149.668 350.656 150.294 350.298C151.479 349.619 151.93 348.033 151.299 346.756C150.669 345.479 149.197 344.994 148.011 345.673C146.825 346.352 146.375 347.938 147.006 349.215C147.303 349.818 148.248 348.838 148.802 349.048Z" fill="#0E1116"/>
<path d="M137.347 349.048C136.727 349.284 136.481 350.656 135.855 350.298C134.669 349.619 134.219 348.033 134.849 346.756C135.48 345.479 136.952 344.994 138.138 345.673C139.323 346.352 139.773 347.938 139.143 349.215C138.845 349.818 137.901 348.838 137.347 349.048Z" fill="#0E1116"/>
</g>
<path d="M274.403 376H229.479C222.587 376 217 381.777 217 388.904V435.36C217 442.487 222.587 448.264 229.479 448.264H274.403C281.294 448.264 286.881 442.487 286.881 435.36V388.904C286.881 381.777 281.294 376 274.403 376Z" fill="white" fill-opacity="0.1"/>
<path d="M252 389C239.302 389 229 399.302 229 412C229 424.702 239.302 435 252 435C264.7 435 275 424.702 275 412C275 399.302 264.702 389 252 389ZM250.804 430.438V416.01H242.781L254.306 393.562V407.99H262.028L250.804 430.438Z" fill="#030303"/>
<path d="M517.584 334.978C518.087 334.086 515.509 333.777 517.246 334.663C517.407 334.716 517.371 335.04 517.584 334.978ZM503.529 327.406C502.434 325.976 505.588 327.646 504.476 326.149C503.539 325.403 502.639 326.99 503.529 327.406ZM505.823 329.203C507.379 328.996 505.428 328.533 505.511 329.185L505.823 329.203ZM504.594 328.909C504.928 328.456 504.009 329.139 504.594 328.909ZM507.074 331.638C508.04 331.661 506.659 330.342 507.809 330.938C507.62 330.322 506.469 330.207 505.904 329.961C505.588 330.524 506.551 331.646 507.071 331.638H507.074ZM504.067 331.515C504.893 330.891 506.919 331.884 505.619 330.895C505.494 330.785 502.77 331.646 504.067 331.515ZM503.219 333.136C504.666 332.645 506.644 332.093 507.327 333.379C506.631 332.543 507.047 331.719 507.704 332.942C508.631 334.18 509.095 332.38 508.49 331.963C509.179 332.819 509.961 333.221 508.951 332.017C510.047 330.698 506.755 332.19 506.006 332.175C505.647 332.336 502.284 333.031 503.219 333.136ZM505.913 337.641C506.266 337.204 505.428 337.525 505.913 337.641ZM505.069 339.9C504.982 339.379 504.817 340.176 505.069 339.9ZM504.354 339.537C505.162 339.484 505.622 338.645 504.198 338.694C501.988 338.465 506.145 339.448 503.914 339.168C503.614 339.365 504.338 339.594 504.354 339.54V339.537ZM538.854 361.452C539.855 361.452 541.886 361.142 539.708 361.142C539.367 361.196 537.717 361.185 538.854 361.452ZM534.059 358.636C534.167 357.903 533.574 358.702 534.059 358.636ZM537.818 361.205C537.839 360.567 537.272 361.492 537.818 361.205ZM500.809 338.05C501.527 337.502 499.963 337.841 500.809 338.05ZM503.539 339.99C503.979 339.523 502.586 339.801 503.539 339.99ZM502.615 339.732C503.867 338.964 501.284 339.067 502.615 339.732ZM511.875 333.902C512.294 332.803 513.503 333.463 512.069 333.681C512.1 333.798 512.026 334.249 511.875 333.902ZM510.725 333.91C512.735 334.686 510.626 331.729 510.725 333.91ZM506.683 334.532C507.347 333.734 510.446 334.023 508.178 334.454C507.571 333.996 507.104 334.723 506.683 334.532ZM506.403 334.719C506.801 334.252 506.518 335.132 506.403 334.719ZM505.312 335.159C505.369 334.42 507.14 335.55 505.605 335.425L505.312 335.159ZM504.512 335.145C505.141 334.677 504.846 335.406 504.512 335.145ZM504.428 335.925C504.865 334.319 506.764 337.245 505.142 336.136C504.968 336 504.747 335.918 504.505 335.918C504.478 335.918 504.451 335.919 504.423 335.921H504.426L504.428 335.925ZM499.947 338.206C499.78 337.245 499.803 335.559 501.406 336.129C499.267 336.553 502.887 338.787 502.429 337.023C503.328 337.066 504.19 336.491 503.716 337.364C505.488 337.167 506.716 335.632 508.43 335.846C509.985 335.717 511.422 335.416 512.79 334.962L512.659 334.999C513.84 334.913 514.976 333.641 514.329 332.889C514.016 332.87 513.649 332.859 513.28 332.859C511.852 332.859 510.462 333.023 509.128 333.332L509.252 333.307C507.28 333.717 505.487 334.496 503.495 334.833C501.554 335.093 503.884 335.551 503.329 335.652C502.316 336.004 504.537 336.241 503.199 336.611C502.372 336.453 501.509 336.169 501.865 335.3C500.006 335.538 498.37 336.312 499.841 338.202H499.948L499.947 338.206ZM503.066 340.294C503.165 339.611 502.33 340.429 503.066 340.294ZM535.728 361.405C535.965 360.7 535.128 361.494 535.728 361.405ZM532.181 359.566C532.774 359.021 531.427 359.398 532.181 359.566ZM502.839 341.444C503.769 341.078 501.15 340.689 502.652 341.372L502.839 341.444ZM500.648 340.134C500.585 339.559 500.308 340.206 500.648 340.134ZM500.253 340.433C500.217 339.949 499.994 340.616 500.253 340.433ZM502.923 342.165C502.797 341.114 501.413 342.007 502.923 342.165ZM508.096 345.988C508.315 345.786 507.576 345.838 508.096 345.988ZM503.416 342.988C503.247 343.206 503.2 342.814 503.416 342.988ZM502.672 342.624C502.688 342.175 501.481 342.221 502.672 342.624ZM501.371 342.296C501.124 340.905 500.428 342.085 501.371 342.296ZM506.827 346.084C506.843 345.352 506.258 346.057 506.827 346.084ZM531.478 361.439C532.398 361.252 534.493 361.906 534.831 361.195C533.717 361.168 530.968 360.409 530.839 361.375L531.083 361.416L531.478 361.439ZM506.168 345.919C506.155 345.68 505.95 346.008 506.168 345.919ZM504.091 344.912C504.809 344.669 503.431 344.751 504.091 344.912ZM520.671 356.105C520.658 355.385 519.961 356.284 520.671 356.105ZM504.534 345.934C505.648 345.503 503.341 345.63 504.534 345.934ZM526.108 359.802C526.496 359.514 525.624 359.766 526.108 359.802ZM522.063 357.252C521.991 356.973 521.781 357.305 522.063 357.252ZM521.571 356.894C521.377 356.395 520.802 356.882 521.571 356.894ZM511.366 350.457C511.366 349.729 510.064 350.162 511.366 350.457ZM510.188 350.184C510.165 350.126 509.71 349.783 510.188 350.184ZM502.421 345.395C502.586 344.707 500.888 341.61 501.62 343.843C501.882 344.31 501.853 345.197 502.421 345.395ZM506.653 348.736C507.581 348.945 510.364 351.025 508.723 348.88C507.882 348.633 508.386 346.576 507.528 346.939C508.103 347.901 508.003 348.309 506.792 347.704C505.274 346.962 505.941 348.07 506.236 348.375C505.833 348.469 506.774 348.727 506.654 348.735L506.653 348.736ZM529.906 363.705C530.599 363.242 529.063 363.555 529.906 363.705ZM527.426 362.056C528.457 361.191 526.335 362.438 527.426 362.056ZM527.911 362.29C529.177 361.375 527.142 362.115 527.645 362.463L527.911 362.29ZM513.731 353.875C513.471 353.342 513.329 353.96 513.731 353.875ZM512.905 353.396C512.869 352.965 512.381 353.432 512.905 353.396ZM526.324 361.858C527.314 361.219 526.098 361.319 526.144 361.915L526.324 361.858ZM506.016 349.051C506.309 348.617 505.261 348.995 506.016 349.051ZM526.648 362.276C527.672 361.399 526.002 362.092 526.648 362.276ZM525.093 361.665C527.131 360.347 524.256 361.09 525.093 361.665ZM503.483 348.131C502.539 346.784 502.895 346.176 501.984 345.078C501.811 344.234 500.421 342.323 501.265 344.349C502.037 345.532 502.267 347.365 503.483 348.132V348.131ZM525.44 362.039C526.548 360.864 524.366 362.109 525.44 362.039ZM525.438 362.415C525.444 362.147 525.007 362.533 525.438 362.415ZM523.354 360.986C524.356 360.146 522.383 361.36 523.354 360.986ZM514.198 355.328C514.848 355.903 517.184 355.753 514.989 355.4C514.663 354.916 512.922 355.034 514.198 355.328ZM507.533 351.311C507.098 350.589 505.98 350.657 507.533 351.311ZM506.362 350.542C506.183 349.836 505.105 349.842 506.362 350.542ZM523.772 361.477C524.356 360.91 523.795 362.381 524.742 361.339C524.751 360.593 524.712 360.153 523.654 361.058C523.364 361.219 523.234 361.908 523.772 361.477ZM522.675 361.015C522.711 360.512 522.329 361.446 522.675 361.015ZM512.005 354.551C514.538 355.366 510.763 353.552 512.005 354.551ZM509.92 353.353C510.531 353.808 512.22 354.644 510.79 353.526C511.273 352.965 509.867 352.668 510.334 352.294C509.148 351.568 509.4 351.633 510.231 351.654C508.805 351.019 510.435 351.065 510.356 350.739C509.808 350.631 507.626 349.768 508.911 350.81C507.607 350.146 508.601 351.058 508.207 350.961C506.873 350.599 509.393 351.976 507.995 351.635C508.759 352.241 510.054 353.188 508.319 352.277C508.089 352.606 509.558 353.103 509.922 353.355L509.92 353.353ZM513.856 355.965C514.962 356.253 514.956 355.794 513.955 355.661C513.416 355.157 511.717 354.627 513.237 355.597C513.339 355.852 513.659 355.847 513.855 355.967L513.856 355.965ZM511.862 354.959C511.891 355.084 511.632 354.759 511.862 354.959ZM512.831 335.895C512.999 335.688 512.867 336.145 512.831 335.895ZM512.252 339.349C511.864 338.666 512.741 336.343 512.837 337.787C512.429 338.909 512.721 339.538 513.004 338.031C513.53 336.845 512.89 340.371 512.249 339.351L512.252 339.349ZM511.688 340.265C512.012 340.991 511.594 339.69 511.688 340.265ZM512.035 341.181C512.56 341.917 511.47 339.786 512.035 341.181ZM512.271 341.702C512.348 342.136 512.266 341.402 512.271 341.702ZM508.205 339.44C508.888 340.308 508.575 338.661 508.205 339.44ZM506.765 338.582C506.996 338.482 506.887 338.891 506.765 338.582ZM512.922 343.389C513.132 341.692 513.107 344.382 512.922 343.389ZM507.399 340.148C507.702 339.703 506.591 338.136 507.558 339.586C507.975 339.918 508.766 340.143 508.067 340.282C509.163 341.251 507.799 340.544 507.399 340.15V340.148ZM513.238 343.854C513.317 342.364 513.684 342.965 513.241 344.066L513.238 343.854ZM506.844 340.666C507.59 340.508 509.93 341.976 507.778 341.086C507.541 340.82 507.031 340.943 506.844 340.666ZM513.655 345.375C513.888 344.546 513.672 345.923 513.655 345.375ZM510.633 343.437C510.898 343.677 510.515 341.983 510.633 343.437ZM506.653 341.326C505.401 339.596 510.294 343.074 507.456 341.764C507.16 341.687 506.802 341.656 506.653 341.326ZM513.561 346.009C513.658 345.614 513.574 346.472 513.561 346.009ZM513.921 346.366C514.099 346.994 514.007 345.444 513.921 346.366ZM511.855 345.144C511.011 344.638 511.634 341.58 511.921 343.67C512.742 343.404 511.877 344.748 512.488 344.737C512.393 345.587 512.118 345.893 511.859 345.142L511.855 345.144ZM506.269 341.896C504.318 340.161 508.721 342.805 506.587 342.22L506.269 341.896ZM507.521 343.094C508.24 343.557 506.932 341.986 507.521 343.094ZM506.891 342.891C507.281 342.504 507.098 343.272 506.891 342.891ZM505.868 342.918C505.197 342.254 504.711 341.638 505.898 342.506C506.357 342.523 504.882 341.109 506.006 342.057C507.192 342.273 506.594 344.001 505.868 342.92V342.918ZM507.816 344.426C508.473 345.565 508.204 343.608 507.816 344.426ZM507.006 344.149C507.419 344.891 507.078 343.065 507.006 344.149ZM508.809 345.39C508.432 344.746 508.21 343.971 508.21 343.144C508.21 343.143 508.21 343.141 508.21 343.14C508.346 343.818 509.654 346.062 508.851 344.07C507.964 342.4 509.91 344.612 510.111 345.029C510.201 345.441 509.564 344.915 509.996 345.887C509.206 344.779 509.529 346.499 508.809 345.39ZM514.64 349.279C514.007 347.861 515.088 348.503 514.779 349.512L514.64 349.279ZM511.259 348.194C511.839 348.661 510.98 347.695 511.259 348.194ZM515.196 350.934C515.481 351.696 515.437 350.028 515.196 350.934ZM509.621 347.912C510.015 347.805 509.815 348.584 509.621 347.912ZM516.626 352.748C517.47 353.115 515.958 351.454 516.626 352.748ZM517.206 353.526C517.398 354.173 517.188 352.685 517.206 353.526ZM523.863 358.584C524.195 358.564 523.874 358.836 523.863 358.584ZM518.045 354.889C517.513 354.332 517.375 353.29 517.95 354.197C518.245 354.315 518.893 355.898 518.045 354.889ZM519.832 359.933C521.22 359.103 520.762 361.876 522.186 360.166C523.591 359.142 520.975 361.435 522.707 360.351C523.957 359.512 525.808 360.746 526.975 361.15C527.816 361.109 528.632 361.878 529.495 361.411C531.152 360.962 526.25 360.746 527.537 359.956C527.338 360 527.11 360.026 526.876 360.026C525.718 360.026 524.706 359.401 524.159 358.471L524.15 358.456C522.283 358.147 520.697 357.134 519.642 355.705L519.629 355.686C519.284 355.12 520.132 355.765 519.332 354.843C518.46 353.966 517.717 352.958 517.137 351.854L517.103 351.786C516.283 351.348 516.188 350.057 516.103 351.743C516.11 350.678 515.11 349.961 514.867 350.26C514.864 349.233 515.936 349.748 515.183 348.989C515.022 347.925 514.49 346.816 514.329 345.617C514.082 345.039 514.293 343.801 513.48 345.111C513.183 346.494 513.38 343.41 513.842 344.428C514.447 343.386 513.626 343.512 513.59 343.656C513.986 342.779 513.842 341.536 513.488 342.01C513.698 341.081 513.82 338.593 513.173 339.036C513.564 338.065 513.917 334.594 512.215 335.918C511.323 335.954 510.487 336.146 509.719 336.467L509.766 336.45C511.537 337.426 509.587 336.802 508.868 336.647C508.775 337.548 508.06 337.158 507.169 337.167C508.593 337.342 506.476 338.622 505.658 338.126C504.599 338.632 506.574 339.898 505.68 340.291C505.787 340.88 504.054 340.075 504.189 341.441C503.16 341.008 504.05 343.058 504.564 342.364C506.315 342.838 505.796 343.919 505.839 344.945C505.556 345.543 504.43 343.539 505.588 343.631C504.676 342.147 504.58 343.092 503.82 343.784C503.64 343.834 505.757 344.767 504.43 345.226C505.598 345.405 505.631 346.429 505.868 347.076C506.568 347.807 506.424 346.268 507.267 347.148C506.735 346.364 504.452 344.941 506.289 345.398C506.281 344.608 505.957 343.974 506.521 343.989C507.077 342.98 505.937 346.481 507.195 345.197C507.541 345.045 507.626 344.185 508.254 345.277C509.161 346.172 508.581 346.818 507.3 346.002C507.528 346.78 509.013 347.057 508.734 348.275C509.03 349.344 509.444 348.95 509.805 348.888C510.088 349.926 510.249 349.163 510.264 348.667C511.558 348.946 511.256 349.709 511.661 350.248C512.554 350.651 510.382 347.514 511.916 349.304C513.528 350.759 512.521 351.37 511.072 351.137C511.987 351.063 512.285 352.376 513.431 352.33C514.476 352.827 515.182 354.738 513.382 353.941C512.756 353.379 510.544 352.683 512.353 353.754C514.195 354.509 515.709 355.248 517.168 356.07L516.953 355.96C518.103 356.782 518.601 357.723 519.037 357.91C518.071 358.372 516.122 357.541 517.569 357.285C516.665 357.121 515.65 356.665 516.514 357.788C517.25 358.405 519.119 358.337 519.455 358.408C519.169 359.033 518.683 359.083 519.467 359.132C518.594 359.599 519.747 359.671 519.828 359.937L519.832 359.933ZM514.665 356.757C516.15 356.947 512.896 355.745 514.341 356.65L514.665 356.757ZM518.627 359.447C519.917 358.935 517.369 359.195 518.627 359.447ZM511.01 354.709C511.836 354.62 509.68 354.15 511.01 354.709ZM515.511 357.57C515.619 357.111 514.562 357.432 515.511 357.57ZM522.093 361.832C522.076 361.478 521.764 361.967 522.093 361.832ZM516.047 358.123C515.949 358.173 515.843 357.89 516.047 358.123ZM506.334 351.952C506.196 351.418 505.123 350.993 506.334 351.952ZM510.034 354.345C511.148 354.279 508.51 353.855 510.034 354.345ZM513.156 356.598C513.041 356.254 512.552 356.583 513.156 356.598ZM521.473 361.728C521.524 361.076 520.84 362.213 521.473 361.728ZM509.851 354.569C509.777 354.21 509.374 354.603 509.851 354.569ZM518.193 359.887C520.134 359.904 516.442 359.622 518.193 359.887ZM514.648 357.838C516.697 358.419 512.928 356.545 514.144 357.627L514.412 357.749L514.645 357.838H514.648ZM516.416 359.246C516.763 358.653 514.953 358.905 516.416 359.246ZM510.596 355.692C511.433 356.335 513.973 355.774 511.878 355.31C510.927 354.801 508.776 354.454 510.239 355.615L510.596 355.692ZM515.238 358.876C516.01 358.586 513.987 358.583 515.238 358.876ZM513.503 357.811C514.042 357.434 512.387 357.524 513.503 357.811ZM511.437 356.608C511.365 356.307 510.33 356.276 511.437 356.608ZM518.481 362.095C519.194 362.543 522.648 363.082 520.483 362.28C520.124 362.355 516.477 361.25 518.478 362.095H518.481ZM514.043 359.325C514.019 359.027 513.727 359.46 514.043 359.325ZM513.156 358.882C514.032 358.316 512.025 358.875 513.156 358.882ZM517.049 361.6C517.392 361.094 515.953 361.408 517.049 361.6ZM515.023 360.469C515.584 359.93 514.154 360.131 515.023 360.469ZM513.839 359.974C513.743 359.499 513.408 360.24 513.839 359.974ZM512.893 359.629C513.28 359.457 512.337 359.414 512.893 359.629ZM505.79 353.348C506.108 353.917 505.849 353.086 505.79 353.348ZM510.809 358.857C512.551 359.503 510.801 357.633 510.001 357.741C509.649 357.128 508.652 356.74 509.354 356.411C508.089 356.849 508.03 354.741 507.432 355.041C506.095 354.618 506.912 353.119 505.319 352.203C505.174 351.233 503.735 350.392 503.275 348.93C503.072 348.183 501.649 346.032 502.524 348.032C503.456 350.024 504.505 351.739 505.717 353.322L505.668 353.254C506.452 354.949 507.603 356.356 509.026 357.42L509.055 357.44C509.575 357.94 510.076 358.704 510.81 358.859L510.809 358.857ZM514.228 361.275C515.824 362.096 517.676 362.736 519.623 363.098L519.75 363.118C521.623 363.548 523.773 363.794 525.983 363.794C527.13 363.794 528.263 363.728 529.375 363.598L529.24 363.611C527.821 362.97 526.352 363.863 524.938 363.153C524.435 363.21 523.851 363.242 523.26 363.242C521.997 363.242 520.768 363.094 519.59 362.814L519.698 362.835C517.354 361.981 515.404 361.101 513.528 360.101L513.786 360.226C511.491 359.389 514.972 361.3 515.591 361.457C517.024 362.27 514.016 361.038 513.59 360.7C512.39 360.026 512.236 360.167 513.472 360.851C513.722 360.995 513.968 361.149 514.227 361.274L514.228 361.275ZM511.328 360.018C509.562 358.803 508.05 357.39 506.769 355.784L506.736 355.742C504.327 352.786 502.365 349.344 501.028 345.607L500.952 345.365C500.151 342.931 499.874 340.321 498.843 337.982C498.634 337.6 498.512 337.144 498.512 336.66C498.512 335.262 499.534 334.102 500.871 333.888L500.887 333.887C501.714 333.73 503.173 332.949 501.413 333.507C499.836 334.664 499.684 332.456 501.3 332.318C502.003 332.311 502.57 331.74 502.57 331.036C502.57 330.825 502.519 330.625 502.428 330.448L502.431 330.455C501.245 329.683 505.304 328.834 503.263 327.682C501.139 325.385 506.24 324.945 504.982 327.55C504.682 329.553 508.546 327.182 507.65 329.495C508.562 330.608 511.063 329.747 511.001 331.308C512.331 331.397 512.785 332.515 514.032 332.602C515.325 333.185 517.664 333.644 518.103 335.099C516.822 336.115 513.856 333.006 513.714 335.813C513.747 340.233 514.404 344.487 515.6 348.509L515.518 348.185C516.481 350.577 517.847 352.62 519.549 354.325C521.1 356.053 522.964 357.462 525.06 358.471L525.166 358.517C526.834 359.305 528.772 359.926 530.799 360.282L530.938 360.302C531.743 359.686 533.166 357.397 534.42 358.362C534.479 359.447 531.926 360.63 534.299 360.511C535.693 360.091 536.659 361.589 537.808 360.238C538.864 361.49 542.202 359.437 541.449 361.998C540.433 362.653 538.949 362.257 537.93 363.159C536.251 362.319 534.913 363.909 533.053 363.708C531.225 364.04 529.122 364.229 526.975 364.229C526.912 364.229 526.847 364.229 526.784 364.229H526.794C523.131 364.165 519.626 363.591 516.314 362.578L516.583 362.648C514.579 361.971 512.841 361.08 511.264 359.974L511.33 360.019L511.328 360.018Z" fill="white"/>
</g>
<defs>
<radialGradient id="paint0_radial_1_6" cx="0" cy="0" r="1" gradientUnits="userSpaceOnUse" gradientTransform="translate(333.5 305.541) rotate(90) scale(320.832 310.253)">
<stop stop-color="white"/>
<stop offset="1" stop-color="white" stop-opacity="0"/>
</radialGradient>
<linearGradient id="paint1_linear_1_6" x1="240.267" y1="-66.8449" x2="449.14" y2="646.099" gradientUnits="userSpaceOnUse">
<stop offset="0.416946"/>
<stop offset="0.880782" stop-opacity="0.02"/>
</linearGradient>
<clipPath id="clip0_1_6">
<rect width="589" height="610" fill="white"/>
</clipPath>
<clipPath id="clip1_1_6">
<rect width="46" height="46" fill="white" transform="translate(120 332)"/>
</clipPath>
</defs>
</svg>
