<svg width="664" height="665" viewBox="0 0 664 665" fill="none" xmlns="http://www.w3.org/2000/svg">
    <!-- Python Icon -->
    <g id="python" transform="translate(100, 100)">
        <path d="M63.5945 0.650879C31.9185 0.650879 34.0815 14.141 34.0815 14.141L34.1135 28.0638H64.077V32.6268H21.4175C21.4175 32.6268 0.65625 29.8628 0.65625 61.8938C0.65625 93.9268 18.7963 92.6628 18.7963 92.6628H29.9055V78.1378C29.9055 78.1378 29.2615 60.0028 47.8723 60.0028C66.4853 60.0028 77.0065 60.0028 77.0065 60.0028C77.0065 60.0028 94.2395 60.4128 94.2395 43.5228C94.2395 26.6308 94.2395 16.2098 94.2395 16.2098C94.2395 16.2098 97.5505 0.650879 63.5945 0.650879ZM46.5115 10.0399C51.4945 10.0399 55.5095 14.0549 55.5095 19.0379C55.5095 24.0219 51.4945 28.0369 46.5115 28.0369C41.5285 28.0369 37.5145 24.0219 37.5145 19.0379C37.5145 14.0549 41.5285 10.0399 46.5115 10.0399Z" fill="#366A96"/>
        <path d="M64.0318 128.185C95.7078 128.185 93.5448 114.695 93.5448 114.695L93.5128 100.772H63.5488V96.2098H106.208C106.208 96.2098 126.97 98.9738 126.97 66.9428C126.97 34.9098 108.83 36.1738 108.83 36.1738H97.7208V50.6978C97.7208 50.6978 98.3648 68.8328 79.7538 68.8328C61.1418 68.8328 50.6198 68.8328 50.6198 68.8328C50.6198 68.8328 33.3868 68.4228 33.3868 85.3138C33.3868 102.205 33.3868 112.626 33.3868 112.626C33.3868 112.626 30.0758 128.185 64.0318 128.185ZM81.1148 118.794C76.1318 118.794 72.1168 114.779 72.1168 109.797C72.1168 104.814 76.1318 100.799 81.1148 100.799C86.0978 100.799 90.1118 104.814 90.1118 109.797C90.1118 114.779 86.0978 118.794 81.1148 118.794Z" fill="#FFD43B"/>
    </g>

    <!-- Hugging Face Icon -->
    <g id="huggingface" transform="translate(250, 100)">
        <path fill-rule="evenodd" clip-rule="evenodd" d="M60.1007 0C26.9103 0 0 26.9103 0 60.1007C0 93.2897 26.9103 120.201 60.1007 120.201C93.2897 120.201 120.201 93.2897 120.201 60.1007C120.201 26.9103 93.2897 0 60.1007 0ZM37.5714 45.3261C34.1854 45.3261 31.4394 48.7494 31.4394 52.9083C31.4394 57.0671 34.1854 60.4904 37.5714 60.4904C40.9574 60.4904 43.7035 57.0671 43.7035 52.9083C43.7035 48.7494 40.9574 45.3261 37.5714 45.3261ZM82.6299 45.3261C79.2439 45.3261 76.4979 48.7494 76.4979 52.9083C76.4979 57.0671 79.2439 60.4904 82.6299 60.4904C86.0159 60.4904 88.762 57.0671 88.762 52.9083C88.762 48.7494 86.0159 45.3261 82.6299 45.3261ZM37.5714 76.5363C36.0594 76.5363 34.7673 75.954 33.9939 75.0422C33.3736 74.3125 32.3977 74.2384 31.6679 74.8586C30.9382 75.4789 30.8641 76.4548 31.4844 77.1846C32.9205 78.8855 35.2104 79.9731 37.5714 79.9731C39.9325 79.9731 42.2224 78.8855 43.6584 77.1846C44.2787 76.4548 44.2046 75.4789 43.4749 74.8586C42.7452 74.2384 41.7693 74.3125 41.149 75.0422C40.3756 75.954 39.0835 76.5363 37.5714 76.5363ZM70.7062 77.2572C68.8422 76.5733 67.0342 75.9881 65.9542 75.5952C65.1608 75.3072 65.3418 74.7461 65.3418 74.7461C65.3418 74.7461 67.3978 73.4901 69.6848 73.4901C71.9718 73.4901 74.2858 74.3011 77.3218 75.5021C78.2918 75.9271 79.3258 75.3821 79.3258 74.3421V67.6391C79.1984 67.6034 79.0686 67.5758 78.9368 67.5568C75.5988 67.0438 72.9068 64.5968 72.1358 61.3368C71.9948 60.6988 71.3778 60.2798 70.7308 60.3948C68.3888 60.8078 66.6168 60.9948 60.1008 60.9948C53.5848 60.9948 51.8128 60.8078 49.4708 60.3948C48.8228 60.2798 48.2068 60.6988 48.0658 61.3368C47.2948 64.5978 44.6018 67.0438 41.2638 67.5568C41.133 67.5758 41.0032 67.6034 40.8758 67.6391V74.1968C40.8758 75.8378 42.6488 76.7148 43.8768 75.6078C47.2718 72.5568 53.0068 68.7968 60.0998 68.7968C67.1938 68.7968 70.6368 73.4901 70.6368 73.4901C70.6368 73.4901 70.6368 71.8491 73.4088 71.8491C76.1808 71.8491 82.6298 71.8491 82.6298 71.8491C85.9328 71.8491 88.3968 74.3131 88.3968 76.5361C88.3968 78.7581 85.9328 81.2221 82.6298 81.2221C79.3268 81.2221 75.7358 79.0361 70.7038 77.2571L70.7062 77.2572Z" fill="#FFFFFF"/>
    </g>

    <!-- FastAPI Icon -->
    <g id="fastapi" transform="translate(400, 100)">
        <path d="M64.5717 0.538086L1.66699 63.4425L64.5717 126.347L127.477 63.4425L64.5717 0.538086Z" fill="#009688"/>
        <path d="M64.5718 0.538086L1.66699 63.4425L64.5718 126.347V0.538086Z" fill="#006A5F"/>
        <path d="M90.8086 44.9092H78.5372C77.898 44.9092 77.3613 45.4459 77.3613 46.0851V80.7992C77.3613 81.4384 77.898 81.9751 78.5372 81.9751H90.8086C91.4478 81.9751 91.9844 81.4384 91.9844 80.7992V46.0851C91.9844 45.4459 91.4478 44.9092 90.8086 44.9092Z" fill="white"/>
        <path d="M65.3379 35.4395H53.0665C52.4273 35.4395 51.8906 35.9762 51.8906 36.6154V80.799C51.8906 81.4382 52.4273 81.9748 53.0665 81.9748H65.3379C65.9771 81.9748 66.5137 81.4382 66.5137 80.799V36.6154C66.5137 35.9762 65.9771 35.4395 65.3379 35.4395Z" fill="white"/>
        <path d="M39.8672 54.9688H27.5958C26.9566 54.9688 26.4199 55.5055 26.4199 56.1447V80.7993C26.4199 81.4385 26.9566 81.9752 27.5958 81.9752H39.8672C40.5064 81.9752 41.043 81.4385 41.043 80.7993V56.1447C41.043 55.5055 40.5064 54.9688 39.8672 54.9688Z" fill="white"/>
    </g>

    <!-- Flask Icon -->
    <g id="flask" transform="translate(550, 100)">
        <path d="M24.9697 6.12061V29.0839L42.3939 60.9627L59.697 29.0839V6.12061H24.9697Z" fill="#FFFFFF"/>
        <path d="M42.333 0C38.6116 0 35.5874 3.02416 35.5874 6.74551C35.5874 7.17322 35.6384 7.58572 35.7275 7.9854H48.9384C49.0275 7.58572 49.0786 7.17322 49.0786 6.74551C49.0786 3.02416 46.0543 0 42.333 0Z" fill="#FFFFFF"/>
        <path fill-rule="evenodd" clip-rule="evenodd" d="M84.6654 120.9L63.0203 75.9764V25.4089C69.5415 23.7547 74.5093 17.9055 74.5093 10.9366C74.5093 2.72323 67.8813 0.103516 59.6962 0.103516H24.9699C16.7848 0.103516 10.1567 2.72323 10.1567 10.9366C10.1567 17.9055 15.1245 23.7547 21.6458 25.4089V75.9764L0.000732422 120.9H84.6654ZM42.3331 107.084C54.0478 107.084 63.5408 104.151 63.5408 100.501C63.5408 96.8512 54.0478 93.918 42.3331 93.918C30.6183 93.918 21.1254 96.8512 21.1254 100.501C21.1254 104.151 30.6183 107.084 42.3331 107.084Z" fill="#FFFFFF"/>
    </g>
</svg> 